<svg viewBox="0 0 64 64" xmlns="http://www.w3.org/2000/svg">
  <defs>
    <linearGradient id="g" x1="0" y1="0" x2="64" y2="64" gradientUnits="userSpaceOnUse">
      <stop stop-color="#7c3aed"/><stop offset="1" stop-color="#06b6d4"/>
    </linearGradient>
  </defs>
  <path d="M32,5 L55,14 L55,33 C55,47.5 45.5,55.5 32,60 C18.5,55.5 9,47.5 9,33 L9,14 Z" fill="none" stroke="url(#g)" stroke-width="3" stroke-linejoin="round"/>
  <path d="M41,22 L24,22 Q21,22 21,25 L21,39 Q21,42 24,42 L41,42" fill="none" stroke="url(#g)" stroke-width="3" stroke-linecap="round" stroke-linejoin="round"/>
  <line x1="16" y1="28" x2="21" y2="28" stroke="url(#g)" stroke-width="2.4" stroke-linecap="round"/>
  <line x1="16" y1="36" x2="21" y2="36" stroke="url(#g)" stroke-width="2.4" stroke-linecap="round"/>
  <line x1="28" y1="17" x2="28" y2="22" stroke="url(#g)" stroke-width="2.4" stroke-linecap="round"/>
  <line x1="34" y1="17" x2="34" y2="22" stroke="url(#g)" stroke-width="2.4" stroke-linecap="round"/>
  <line x1="28" y1="42" x2="28" y2="47" stroke="url(#g)" stroke-width="2.4" stroke-linecap="round"/>
  <line x1="34" y1="42" x2="34" y2="47" stroke="url(#g)" stroke-width="2.4" stroke-linecap="round"/>
  <circle cx="32" cy="32" r="3" fill="url(#g)"/>
</svg>
